<?xml version="1.0" encoding="UTF-8" standalone="no"?><!DOCTYPE svg PUBLIC "-//W3C//DTD SVG 1.1//EN"
        "http://www.w3.org/Graphics/SVG/1.1/DTD/svg11.dtd">
<svg width="100%" height="100%" viewBox="0 0 2500 2500" version="1.1" xmlns="http://www.w3.org/2000/svg"
     xml:space="preserve"
     style="fill-rule:evenodd;clip-rule:evenodd;stroke-linejoin:round;stroke-miterlimit:2;"><g><g id="shape_NKttCNbuGM"><g id="svg_4"><rect id="svg_5" x="56.25" y="6.15" width="2391.83" height="2490.21" style="fill-opacity:0;"/><g
        id="svg_26"><g id="svg_1"><g id="svg_6"><g id="svg_7"><path id="svg_8" d="M1252.17,2363.19c-590.216,0 -1068.01,-497.446 -1068.01,-1111.94c-0,-614.492 477.794,-1111.94 1068.01,-1111.94c590.216,-0 1068.01,497.446 1068.01,1111.94c0,614.492 -477.794,1111.94 -1068.01,1111.94Zm-0,-1999.54c-468.426,0 -852.535,399.908 -852.535,887.6c0,490.943 380.987,887.6 852.535,887.6c471.548,-0 852.534,-396.657 852.534,-887.6c0,-487.692 -380.986,-887.6 -852.534,-887.6Z" style="fill:#1454be;fill-rule:nonzero;"/></g></g><g
        id="svg_9"><g id="svg_10"><path id="svg_11" d="M1595.68,1677.17c-24.983,-0 -49.965,-3.252 -74.948,-9.754c-74.948,-22.759 -131.159,-78.031 -149.896,-149.559c-18.737,-58.523 12.491,-123.549 71.825,-139.805c56.211,-19.508 115.545,13.005 134.282,71.528c6.246,6.503 28.105,6.503 34.351,3.251c18.737,-16.256 21.86,-61.774 6.246,-94.287c-21.86,-39.015 -71.825,-68.277 -131.159,-81.282c-43.72,-6.502 -87.44,-6.502 -131.159,6.503c-68.703,16.256 -131.16,58.523 -199.862,104.041c-34.351,22.759 -65.58,42.266 -103.054,61.774c-174.879,97.538 -371.617,143.056 -568.356,133.303c-71.825,-3.252 -174.879,-19.508 -249.827,-97.539c-43.72,-42.267 -43.72,-113.795 -3.123,-159.313c40.597,-45.518 109.3,-48.769 153.019,-3.251c18.737,19.508 53.088,29.262 112.422,32.513c156.142,9.754 318.53,-29.262 455.935,-104.041c31.228,-16.257 59.333,-35.764 90.562,-55.272c78.071,-52.02 162.387,-104.041 262.318,-130.051c71.825,-19.508 146.773,-22.759 218.599,-9.754c121.79,22.759 224.844,91.036 281.055,188.574c71.825,126.8 46.843,292.616 -53.088,380.4c-46.843,35.764 -99.931,52.021 -156.142,52.021Z" style="fill:#1454be;fill-rule:nonzero;"/></g></g><g
        id="svg_12"><g id="svg_13"><path id="svg_14" d="M1814.28,1417.07c-40.597,0 -81.194,-3.251 -118.668,-6.502c-59.334,-6.503 -99.931,-65.026 -93.685,-126.8c6.245,-61.775 62.456,-104.041 121.79,-97.539c131.159,16.257 315.407,-3.251 421.583,-91.036c46.843,-39.015 115.545,-29.261 149.896,19.508c37.474,48.769 28.106,120.297 -18.737,156.062c-131.159,110.543 -309.16,146.307 -462.179,146.307Z" style="fill:#1454be;fill-rule:nonzero;"/></g></g><g
        id="svg_15"><g id="svg_16"><path id="svg_17" d="M1611.29,2099.84c-124.913,0 -227.967,-32.513 -302.915,-71.528c-87.439,-42.267 -149.896,-97.538 -193.616,-143.056c-118.668,55.272 -349.758,146.307 -596.462,133.302c-59.334,-3.251 -106.176,-55.272 -103.053,-117.046c3.122,-61.774 53.088,-110.543 112.422,-107.292c284.178,16.256 555.865,-143.057 558.988,-146.308c49.965,-29.261 112.422,-13.005 143.65,35.764c0,0 62.457,91.036 178.002,146.308c156.142,74.779 337.266,55.272 540.251,-52.021c53.088,-29.261 118.667,-6.502 146.773,48.77c28.105,55.271 6.246,123.548 -46.843,152.81c-165.51,87.784 -312.283,120.297 -437.197,120.297Z" style="fill:#1454be;fill-rule:nonzero;"/></g></g><g
        id="svg_18"><path id="svg_19" d="M793.109,1091.94c-65.58,-87.784 -128.036,-100.79 -128.036,-100.79c-18.737,-3.251 -37.474,-6.502 -59.334,0c-31.229,9.754 -56.211,35.764 -62.457,68.277c-15.614,58.523 18.737,117.046 74.948,126.8c103.054,26.011 243.581,-29.261 274.81,-42.266l-0,-3.252c-18.737,3.252 -59.334,-3.251 -99.931,-48.769Z" style="fill:#2ba0ff;fill-rule:nonzero;"/></g><g
        id="svg_20"><path id="svg_21" d="M946.128,1046.42c21.86,-55.272 12.491,-87.784 12.491,-87.784c-3.123,-9.754 -6.245,-19.508 -15.614,-29.262c-12.491,-13.005 -31.228,-16.256 -46.843,-13.005c-31.228,6.502 -46.842,39.015 -37.474,71.528c15.615,58.523 78.071,110.544 90.563,123.549c-6.246,-9.754 -15.614,-32.513 -3.123,-65.026Z" style="fill:#2ba0ff;fill-rule:nonzero;"/></g></g></g></g></g></g></svg>